<?xml version="1.0" encoding="UTF-8"?><svg id="Layer_1" xmlns="http://www.w3.org/2000/svg" viewBox="0 0 264.7 169.51"><defs><style>.cls-1{fill:#f04b23;stroke-width:0px;}</style></defs><path class="cls-1" d="m10.46,151.41h3.1c.34,2.41,3.29,5.35,7.17,5.35,3.63,0,6.49-2.21,6.49-5.3,0-3.39-3.14-4.57-7.27-5.26-4.22-.69-8.5-2.16-8.5-7.03s4.52-7.47,9.14-7.47c5.8,0,9.04,2.6,9.58,7.32h-2.95c-.64-3.64-4.47-4.42-6.04-4.47-3.05-.1-6.19,1.18-6.19,4.18,0,3.29,3.19,4.13,6.73,4.67,4.08.64,9.04,2.36,9.04,7.81,0,4.62-4.32,8.3-10.02,8.3-7.12,0-10.07-4.72-10.27-8.11"/><path class="cls-1" d="m103.73,153c-2.01,2.06-4.45,3.1-7.27,3.1s-5.27-1.02-7.36-3.11c-2.09-2.09-3.1-4.48-3.1-7.33s1.02-5.26,3.11-7.38c2.08-2.12,4.48-3.15,7.33-3.15s5.22,1.02,7.27,3.12c2.06,2.11,3.05,4.53,3.05,7.39s-.99,5.27-3.03,7.36m2.92-15.91c-.86-1.13-1.99-2.1-3.36-2.9-2.19-1.27-4.52-1.92-6.91-1.92-3.67,0-6.86,1.32-9.49,3.92-2.62,2.61-3.96,5.77-3.96,9.41s1.33,6.8,3.96,9.41c2.62,2.6,5.81,3.92,9.49,3.92,2.4,0,4.68-.63,6.78-1.86,1.39-.82,2.55-1.84,3.49-3.05v4.33h3.06v-25.49h-3.06v4.22Z"/><path class="cls-1" d="m133.43,153.87c-1.33-1.31-1.97-2.92-1.97-4.94v-13.17h7.4v-2.85h-7.4v-9.76h-3.06v25.78c0,2.83.97,5.18,2.89,7.01,1.91,1.81,4.25,2.73,6.95,2.73h.67v-2.85h-.67c-1.91,0-3.48-.64-4.81-1.95"/><rect class="cls-1" x="159.05" y="132.92" width="3.06" height="25.43"/><path class="cls-1" d="m160.59,124.12c-1.42,0-2.23.77-2.23,2.12s.81,2.12,2.23,2.12,2.23-.77,2.23-2.12-.81-2.12-2.23-2.12"/><path class="cls-1" d="m193.13,132.27c-3.76,0-6.66,1.28-8.66,3.82v-3.23h-3.06v25.49h3.06v-14.73c0-2.3.85-4.25,2.61-5.96,1.76-1.71,3.74-2.55,6.05-2.55s4.2.83,5.81,2.52c1.63,1.71,2.42,3.67,2.42,5.98v14.73h3.06v-14.73c0-3.14-1.09-5.84-3.25-8.04-2.16-2.2-4.87-3.31-8.04-3.31"/><path class="cls-1" d="m244.18,145.66c0,2.88-.99,5.3-3.03,7.39-2.03,2.08-4.41,3.09-7.27,3.09s-5.27-1.01-7.36-3.1c-2.09-2.09-3.1-4.5-3.1-7.38s1.02-5.3,3.1-7.38c2.09-2.09,4.49-3.11,7.36-3.11s5.27,1.04,7.27,3.1c2.04,2.09,3.03,4.51,3.03,7.39m-22.27,16.54c.68,1.36,1.39,2.46,2.45,3.48,1.01.98,2.2,1.76,3.46,2.36,2.01.97,4.12,1.46,6.25,1.46,3.89,0,7.09-1.28,9.5-3.8,2.4-2.52,3.62-5.98,3.62-10.28v-22.56h-3.06v4.29c-.92-1.2-2.08-2.2-3.47-3-2.11-1.21-4.42-1.83-6.85-1.83-3.67,0-6.86,1.32-9.49,3.92-2.62,2.61-3.95,5.77-3.95,9.41s1.33,6.8,3.95,9.41c2.62,2.6,5.82,3.92,9.49,3.92,2.32,0,4.6-.63,6.77-1.86,1.43-.81,2.62-1.81,3.55-2.99v1.28c0,3.49-.95,6.27-2.82,8.26-1.89,2-4.25,2.98-7.23,2.98-1.94,0-3.88-.55-5.75-1.63-1.87-1.08-3.25-2.43-4.12-4.03l-2.29,1.2Z"/><path class="cls-1" d="m48.93,144.09h18.16c-.5-5.21-3.66-8.84-8.98-8.84s-8.58,3.68-9.18,8.84m21.32,2.72h-21.37c.1,6.21,4.97,9.32,8.93,9.37,4.87.05,7.47-2.25,8.27-5.02h3.16c-.4,2.72-3.26,7.88-11.09,7.84-7.82-.05-12.59-6.02-12.59-13.33s4.67-13.33,12.49-13.33,12.24,5.45,12.24,13.14c0,.38,0,.86-.05,1.34"/><path class="cls-1" d="m33.74,53.57c3.75,0,7.08-.91,9.98-2.73,2.9-1.82,5.19-4.21,6.85-7.17,1.66-2.96,2.49-6.14,2.49-9.54,0-3.69-.89-7-2.67-9.94-1.78-2.93-4.14-5.25-7.06-6.95-2.93-1.7-6.08-2.56-9.46-2.56-3.75,0-7.07.92-9.98,2.77-2.91,1.84-5.2,4.25-6.89,7.2-1.68,2.96-2.53,6.12-2.53,9.47,0,3.55.86,6.8,2.57,9.75,1.71,2.96,4.02,5.31,6.93,7.06,2.9,1.75,6.16,2.63,9.77,2.63m-16.09,47.61l19.89-34.77c-4.73.9-9.34.7-13.81-.6-4.48-1.3-8.49-3.46-12.05-6.46-3.56-3-6.4-6.66-8.51-10.96-2.11-4.3-3.16-9.03-3.16-14.19,0-4.68.88-9.09,2.64-13.23,1.76-4.14,4.18-7.78,7.28-10.93,3.09-3.15,6.69-5.61,10.79-7.38,4.1-1.77,8.49-2.66,13.18-2.66,6.14,0,11.76,1.54,16.87,4.61,5.11,3.08,9.18,7.2,12.23,12.38,3.05,5.18,4.57,10.92,4.57,17.21,0,3.26-.39,6.24-1.16,8.94-.77,2.7-1.98,5.54-3.62,8.52l-28.19,49.53h-16.94Z"/><path class="cls-1" d="m102.61,97.74v4.39c-7.35,0-13.61-2.48-18.78-7.44-5.18-4.96-7.76-11.31-7.76-19.04V2.31h4.97v28.52h21.42v4.39h-21.42v40.43c0,6.37,2.1,11.65,6.29,15.83,4.19,4.18,9.29,6.27,15.29,6.27"/><path class="cls-1" d="m171.31,66.01c0-8.83-3.13-16.48-9.39-22.96-6.26-6.48-13.74-9.72-22.43-9.72s-16.22,3.27-22.58,9.79c-6.36,6.53-9.54,14.18-9.54,22.95s3.18,16.38,9.54,22.8c6.37,6.43,13.92,9.64,22.66,9.64s16.22-3.21,22.43-9.64c6.21-6.42,9.31-14.05,9.31-22.88m-58.21,25.7c-7.14-7.47-10.71-16.16-10.71-26.09s3.62-18.52,10.87-25.78c7.24-7.26,15.96-10.89,26.16-10.89s18.88,3.63,26.08,10.89c7.19,7.26,10.79,15.88,10.79,25.86s-3.52,18.67-10.56,26.09c-7.04,7.42-15.58,11.13-25.61,11.13h-1.4c-9.93,0-18.47-3.74-25.61-11.21"/><path class="cls-1" d="m215.96,103.03c-6.23,0-11.87-1.53-16.9-4.58-5.04-3.05-9.02-7.12-11.95-12.2-2.93-5.08-4.39-10.66-4.39-16.71h14.62c0,3.46.84,6.6,2.53,9.44,1.69,2.84,3.94,5.1,6.75,6.78,2.81,1.68,5.93,2.52,9.35,2.52s6.47-.84,9.28-2.52c2.81-1.68,5.06-3.94,6.74-6.78,1.69-2.84,2.53-5.98,2.53-9.44s-.77-6.61-2.32-9.47c-1.55-2.86-3.87-5.16-6.96-6.88-3.09-1.73-7.03-2.59-11.81-2.59h-24.81L203.15,1.84h45.99v14.76h-34.1l-6.14,19.23,6.23.15c6.7.14,12.59,1.69,17.68,4.65,5.08,2.96,9.08,6.93,11.98,11.92,2.9,4.99,4.36,10.66,4.36,16.99,0,4.59-.87,8.9-2.6,12.95-1.73,4.05-4.11,7.6-7.13,10.68-3.02,3.08-6.54,5.49-10.54,7.24-4,1.75-8.3,2.63-12.9,2.63"/><path class="cls-1" d="m254.22,9.04c0-3.25,2.37-5.5,5.24-5.5s5.24,2.25,5.24,5.5-2.37,5.47-5.24,5.47-5.24-2.22-5.24-5.47Zm9.37,0c0-2.63-1.79-4.49-4.13-4.49s-4.13,1.86-4.13,4.49,1.79,4.46,4.13,4.46,4.13-1.83,4.13-4.46Zm-6.15-2.91h2.12c1.16,0,2.18.47,2.18,1.8,0,.68-.42,1.31-1.05,1.54l1.29,2.31h-1.27l-.99-1.95h-1.13v1.95h-1.15v-5.65Zm1.86,2.8c.75,0,1.22-.31,1.22-.93,0-.56-.31-.94-1.15-.94h-.78v1.86h.71Z"/></svg>