<?xml version="1.0" encoding="utf-8"?>
<!-- Generator: Adobe Illustrator 19.2.1, SVG Export Plug-In . SVG Version: 6.00 Build 0)  -->
<svg version="1.1" id="layer" xmlns="http://www.w3.org/2000/svg" xmlns:xlink="http://www.w3.org/1999/xlink" x="0px" y="0px"
	 viewBox="0 0 652 652" style="enable-background:new 0 0 652 652;" xml:space="preserve">
<style type="text/css">
	.st0{fill:#255AA8;}
	.st1{font-family:'MyriadPro-Regular';}
	.st2{font-size:37.6761px;}
</style>
<g>
	<path class="st0" d="M70.3,286.5h10.2h39.5c13.9,0,22.9,1.1,27,3.4s6.1,7.2,6.1,14.8c0,7-2.1,11.5-6.2,13.6c-1.1,0.6-2.6,1-4.5,1.5
		c3,0.5,5.2,1.2,6.6,2c4.2,2.1,6.2,6.8,6.2,14.1c0,6.3-1.7,10.9-5,13.7c-3.3,2.8-8.8,4.2-16.2,4.2H80.6H70.3V286.5z M90.9,312.8
		h29.3c5.7,0,9.2-0.3,10.6-0.8c1.3-0.5,2-2,2-4.3c0-2.2-0.6-3.7-1.9-4.5c-1.3-0.8-3.7-1.2-7.3-1.2H90.9V312.8z M90.9,338.1h36.5
		c2.9,0,4.9-0.4,5.9-1.1c1-0.7,1.6-2.1,1.6-4c0-2.5-0.7-4.1-2.1-4.7c-1.4-0.6-5.1-0.9-11.1-0.9H90.9V338.1z"/>
	<polygon class="st0" points="162.8,353.7 162.8,286.5 237.2,286.5 237.2,294.2 237.2,301.9 183.3,301.9 183.3,311.3 234.2,311.3 
		234.2,318.6 234.2,325.9 183.3,325.9 183.3,338.3 237.2,338.3 237.2,346 237.2,353.7 	"/>
	<path class="st0" d="M246,286.5h10.2h33.5c17.1,0,28,1.3,32.7,3.9c4.6,2.6,6.9,8.7,6.9,18.2c0,8.8-2.3,14.4-6.9,16.8
		c-1.6,0.8-4,1.5-7.2,2c2.4,0.7,4.4,1.5,5.9,2.6c4.3,2.9,6.8,8.4,7.5,16.6l0.7,7.1h-10.1h-10.2l-0.7-7.1c-0.4-3.8-1.3-6.4-2.7-7.8
		c-1.5-1.4-4-2.1-7.7-2.1h-31.4v16.9h-10.2H246V286.5z M266.5,319.6h23.3c8.9,0,14.3-0.4,16.2-1.1c1.9-0.7,2.9-2.9,2.9-6.4
		c0-3.9-1-6.2-2.9-7.1c-1.9-0.8-7.3-1.3-16.2-1.3h-23.3V319.6z"/>
	<polygon class="st0" points="357.8,353.7 347.5,353.7 337.2,353.7 337.2,286.5 353.6,286.5 370.1,286.5 408.3,333.5 408.3,286.5 
		418.6,286.5 428.9,286.5 428.9,353.7 413.3,353.7 397.6,353.7 357.8,304.8 	"/>
	<polygon class="st0" points="438.2,353.7 438.2,286.5 512.7,286.5 512.7,294.2 512.7,301.9 458.8,301.9 458.8,311.3 509.7,311.3 
		509.7,318.6 509.7,325.9 458.8,325.9 458.8,338.3 512.7,338.3 512.7,346 512.7,353.7 	"/>
	<path class="st0" d="M521.5,286.5h10.2h33.5c17.1,0,28,1.3,32.7,3.9c4.6,2.6,6.9,8.7,6.9,18.2c0,8.8-2.3,14.4-6.9,16.8
		c-1.6,0.8-4,1.5-7.2,2c2.4,0.7,4.4,1.5,5.9,2.6c4.3,2.9,6.8,8.4,7.5,16.6l0.7,7.1h-10.1h-10.2l-0.7-7.1c-0.4-3.8-1.3-6.4-2.7-7.8
		c-1.5-1.4-4-2.1-7.7-2.1H542v16.9h-10.2h-10.3V286.5z M542,319.6h23.3c8.9,0,14.3-0.4,16.2-1.1c1.9-0.7,2.9-2.9,2.9-6.4
		c0-3.9-1-6.2-2.9-7.1c-1.9-0.8-7.3-1.3-16.2-1.3H542V319.6z"/>
	<polygon class="st0" points="149.1,277.2 59.4,277.2 104.2,232.3 	"/>
	<polygon class="st0" points="59.4,364.3 149.1,364.3 104.2,409.2 	"/>
	<polygon class="st0" points="59.4,277.1 59.4,364.4 15.7,320.8 	"/>
</g>
<text transform="matrix(1 0 0 1 599.9121 304.3896)" class="st0 st1 st2">®</text>
<path class="st0" d="M334.4,388.5h-6.3l10.1-21.4h6.8l10,21.4h-6.5l-1.8-4.4h-10.5L334.4,388.5z M338,380.4h7.2l-3.5-8.5h-0.1
	L338,380.4z"/>
<rect x="358.5" y="367.1" class="st0" width="5.9" height="21.4"/>
<path class="st0" d="M370,367.1h14.4c7.6,0,9,4.2,9,6.1c0,2.4-1.6,4.4-4.4,5.1c2.3,0.8,3.6,1.4,3.6,5.4c0,3.1,0,3.9,1.3,4.3v0.6
	h-6.6c-0.4-1-0.6-2.1-0.6-4.3c0-2.9-0.2-4.1-4.6-4.1h-6.1v8.4H370V367.1z M382.8,376.5c3.1,0,4.6-0.8,4.6-2.9c0-1.1-0.7-2.8-4.2-2.8
	h-7.4v5.7H382.8z"/>
<path class="st0" d="M427.7,374.1c-0.5-1.3-1.4-3.7-6.3-3.7c-2.8,0-7.1,1.4-7.1,7.5c0,3.8,2,7.3,7.1,7.3c3.3,0,5.6-1.4,6.3-4h5.9
	c-1.2,4.7-5.2,7.9-12.4,7.9c-7.6,0-13-3.8-13-11.3c0-7.5,5.7-11.3,13.1-11.3c8.5,0,12,4.4,12.3,7.6H427.7z"/>
<path class="st0" d="M460.9,381c0,5.6-4.5,8.1-11.7,8.1c-2.6,0-6.5-0.5-9-2.6c-1.5-1.3-2.1-3.1-2.2-5.2v-14.2h6.1V381
	c0,3,2.3,4.3,5.1,4.3c4.1,0,5.7-1.5,5.7-4.1v-14.1h6.1V381z"/>
<path class="st0" d="M466.7,367.1h14.4c7.6,0,8.9,4.2,8.9,6.1c0,2.4-1.6,4.4-4.4,5.1c2.3,0.8,3.6,1.4,3.6,5.4c0,3.1,0,3.9,1.3,4.3
	v0.6H484c-0.4-1-0.6-2.1-0.6-4.3c0-2.9-0.2-4.1-4.6-4.1h-6.1v8.4h-5.8V367.1z M479.5,376.5c3.1,0,4.6-0.8,4.6-2.9
	c0-1.1-0.7-2.8-4.2-2.8h-7.4v5.7H479.5z"/>
<polygon class="st0" points="506.6,388.5 500.7,388.5 500.7,370.9 492.1,370.9 492.1,367.1 515.2,367.1 515.2,370.9 506.6,370.9 "/>
<path class="st0" d="M519.2,388.5h-6.3l10.1-21.4h6.8l10,21.4h-6.5l-1.8-4.4h-10.5L519.2,388.5z M522.8,380.4h7.2l-3.5-8.5h-0.1
	L522.8,380.4z"/>
<rect x="543.3" y="367.1" class="st0" width="5.9" height="21.4"/>
<polygon class="st0" points="572.1,367.1 577.6,367.1 577.6,388.5 571.7,388.5 560.1,373.2 560,373.2 560,388.5 554.5,388.5 
	554.5,367.1 560.7,367.1 572,382 572.1,382 "/>
<path class="st0" d="M587.6,381.9c0,1.2,0.8,3.5,6,3.5c2.8,0,5.9-0.5,5.9-2.8c0-1.7-2.1-2.1-5.1-2.7l-3-0.5c-4.6-0.8-9-1.6-9-6.3
	c0-2.4,1.7-6.6,10.9-6.6c8.7,0,11,4.3,11.1,6.9h-5.7c-0.2-1-0.6-3.2-5.8-3.2c-2.3,0-5,0.6-5,2.6c0,1.7,1.8,2,3,2.2l6.9,1.3
	c3.9,0.7,7.4,1.9,7.4,5.8c0,6.5-8.7,7-11.2,7c-10.4,0-12.2-4.5-12.2-7.2H587.6z"/>
</svg>
