<?xml version="1.0" encoding="UTF-8"?> <svg xmlns="http://www.w3.org/2000/svg" id="Layer_1" data-name="Layer 1" viewBox="0 0 518.38 231.54"><defs><style>.cls-1{fill:#24588d;}.cls-2{fill:#fff;}</style></defs><title>Haskell-logo-color-topMargin</title><rect class="cls-1" x="18.54" y="123.53" width="89.48" height="89.48" transform="translate(-100.45 94.03) rotate(-45)"></rect><path class="cls-2" d="M32.15,199.67H63.64v-27H32.15Zm47.23-63v27H63.64v8.86H79.38v27.14H95.12v-63Zm-47.23,27H63.64v-27H32.15Z"></path><polygon points="369.78 141.21 348.54 141.21 330.59 166.64 330.59 141.21 312.24 141.21 312.24 193.78 330.59 193.78 330.59 166.68 348.54 193.57 369.78 193.57 351.81 166.66 369.78 141.21"></polygon><polygon points="149.52 141.18 167.89 141.18 167.89 159.15 180.21 159.15 180.21 141.18 198.6 141.18 198.6 193.78 180.21 193.78 180.21 174.86 167.89 174.86 167.89 193.78 149.52 193.78 149.52 141.18"></polygon><path d="M228.05,175.34l4.16-20.53h1l4.28,20.53Zm15.35-34.16H222.1l-18.16,52.6H223.1l2-6.78h15.42l1.9,6.78h19.22Z"></path><polygon points="375.81 141.18 419.89 141.18 419.89 154.39 394.13 154.39 394.13 160.22 419.89 160.22 419.89 173.61 394.13 173.61 394.13 180.33 419.89 180.33 419.89 193.78 375.81 193.78 375.81 141.18"></polygon><polygon points="427.32 141.18 445.65 141.18 445.65 177.18 469.57 177.18 469.57 193.78 427.32 193.78 427.32 141.18"></polygon><polygon points="476.14 141.2 476.14 193.79 518.38 193.79 518.38 177.19 494.46 177.19 494.46 141.2 476.14 141.2"></polygon><path d="M265,189.57l5.9-14.6a17.53,17.53,0,0,0,1.83,1.38c5.18,3.58,10.22,4.6,13,3.8,1.9-.58,2.7-1.61,2.7-2.78.08-1.38-1-2.4-3.57-2.91l-2.34-.37-1.6-.29-1.68-.34a16.71,16.71,0,0,1-2.78-.81c-9.71-3.28-13.14-15.84-5.11-25.11,4.53-5.11,11.89-7.81,21.46-6.87a35.55,35.55,0,0,1,11.9,3.66c.24.11.14.09.14.09l-5.1,13.21-.15-.09a21.73,21.73,0,0,0-3.72-1.9c-4.75-1.82-8-1.24-9.2,0a2.08,2.08,0,0,0-.27,2.93,2,2,0,0,0,.49.43,3.23,3.23,0,0,0,.66.29l.58.22.44.15.8.22.66.14,3.43.81,1.75.43,1.46.37c8.54,2.41,13,9.85,10.51,19.27-2.77,10.37-15.11,17.3-33,12.48a38.71,38.71,0,0,1-9.2-3.79"></path></svg> 