<svg xmlns="http://www.w3.org/2000/svg" width="246.492" height="42.064" viewBox="0 0 246.492 42.064"><g transform="translate(-40.604 -47)"><g transform="translate(-8.94 -145.76)"><g transform="translate(49.545 192.76)"><path d="M-1288.212,149.6l-.825,1.77a21.033,21.033,0,0,1,.755-12.083,21.029,21.029,0,0,1,27.019-12.427,5.392,5.392,0,0,0-2.953,2.755l-1.478,3.17a5.392,5.392,0,0,1-5.118,3.108,5.392,5.392,0,0,0-5.118,3.108l-2.043,4.382a5.392,5.392,0,0,1-5.118,3.108A5.393,5.393,0,0,0-1288.212,149.6Z" transform="translate(1289.596 -125.553)" fill="#00A0E9"/><path d="M-1210.809,169.924a21.033,21.033,0,0,0-4.009-2.877l-3.154,6.764a5.392,5.392,0,0,1-5.118,3.108,5.392,5.392,0,0,0-5.118,3.108l-2.043,4.382a5.392,5.392,0,0,1-5.118,3.108,5.392,5.392,0,0,0-5.118,3.108l-2.589,5.551a21.083,21.083,0,0,0,1.286,1.92l2.478-5.313a5.392,5.392,0,0,1,6.494-2.868l-4.007,8.594a5.394,5.394,0,0,1-2.34,2.474,21.029,21.029,0,0,0,29.709-1.351A21.029,21.029,0,0,0-1210.809,169.924Zm-25.684,32.546,7.916-16.977a5.392,5.392,0,0,1,5.5-3.078,5.392,5.392,0,0,0,5.5-3.078l2-4.3a5.393,5.393,0,0,1,6.494-2.868l-4.243,9.1a5.392,5.392,0,0,1-5.118,3.108,5.392,5.392,0,0,0-5.118,3.108l-5.77,12.374A5.392,5.392,0,0,1-1236.493,202.47Zm10.29-4.63,3.821-8.194a5.392,5.392,0,0,1,6.494-2.868l-3.821,8.194A5.392,5.392,0,0,1-1226.2,197.84Zm16.517-9.479a5.392,5.392,0,0,1-6.494,2.868l4.1-8.794a5.392,5.392,0,0,1,6.494-2.868Z" transform="translate(1246.025 -164.419)" fill="#00A0E9"/></g></g><g transform="translate(89.249 56.185)"><path d="M282.622,601.153h-28.6V575.335h28.6v7.271H264.416v2.345h14.225v6.3H264.408v2.586h18.214Z" transform="translate(-221.298 -574.714)"/><path d="M465.813,589.978v11.235H455.632V575.4h10.159v11.2a6.661,6.661,0,0,0,.576-.512c1.145-1.317,2.293-2.631,3.419-3.963,1.186-1.4,2.342-2.834,3.527-4.238.684-.81,1.394-1.6,2.109-2.381a.72.72,0,0,1,.466-.225c3.94-.012,7.88-.009,11.943-.009-.339.432-.613.8-.912,1.156-1.1,1.289-2.2,2.566-3.3,3.856s-2.186,2.614-3.289,3.912c-.806.948-1.629,1.88-2.445,2.818-.222.255-.444.509-.669.761a.422.422,0,0,0,.019.643c.676.736,1.36,1.465,2.019,2.216.991,1.128,1.959,2.276,2.946,3.408.566.649,1.15,1.282,1.725,1.924q1.707,1.908,3.414,3.817c.413.461.832.916,1.323,1.456h-.609c-3.74,0-7.479-.026-11.217.023a1.731,1.731,0,0,1-1.529-.747c-.562-.705-1.172-1.372-1.762-2.055q-1.2-1.394-2.41-2.787c-.416-.481-.827-.967-1.253-1.441q-1.814-2.017-3.64-4.024c-.1-.108-.211-.2-.317-.3Z" transform="translate(-319.063 -574.685)"/><path d="M336.848,575.315h10.243v11.219l.123.086c.339-.371.689-.733,1.016-1.116.757-.884,1.5-1.779,2.253-2.668q1.334-1.578,2.67-3.153.936-1.1,1.871-2.209c.444-.526.888-1.053,1.325-1.585a1.19,1.19,0,0,1,1.006-.516c3.646.024,7.291.013,10.937.013h.627c-.317.421-.552.765-.82,1.084q-1.731,2.06-3.48,4.108c-.8.934-1.613,1.852-2.409,2.787-.932,1.095-1.849,2.2-2.778,3.3q-.43.509-.888,1a.593.593,0,0,0-.027.934c.512.549,1,1.119,1.5,1.683q1.7,1.931,3.394,3.864c.76.862,1.527,1.719,2.289,2.58q1.83,2.067,3.655,4.138a1.278,1.278,0,0,1,.129.285c-.21.009-.371.023-.533.023-3.693,0-7.385-.016-11.077.018a1.644,1.644,0,0,1-1.365-.685q-1.134-1.324-2.272-2.645c-.967-1.124-1.929-2.253-2.9-3.371-.788-.9-1.594-1.788-2.388-2.684-.448-.5-.884-1.021-1.339-1.52a3.244,3.244,0,0,0-.5-.352v11.216H336.848Z" transform="translate(-261.463 -574.704)"/><path d="M408.326,601.178a18.083,18.083,0,0,1-8.446-2.2,12.934,12.934,0,0,1-6.55-12.229,13.087,13.087,0,0,1,1.834-5.725,14.222,14.222,0,0,1,10.2-6.644,20.794,20.794,0,0,1,2.559-.25,15.967,15.967,0,0,1,2.973.284,27.1,27.1,0,0,1,4.228,1.081,12.059,12.059,0,0,1,5.482,4.294,13.311,13.311,0,0,1,2.348,5.49,11.844,11.844,0,0,1-.03,4.608,13.7,13.7,0,0,1-2.549,5.775,12,12,0,0,1-5.216,3.953,29.948,29.948,0,0,1-3.922,1.212A24.178,24.178,0,0,1,408.326,601.178Zm-5.463-13.545a5.362,5.362,0,1,0,5.313-5.44A5.417,5.417,0,0,0,402.863,587.633Z" transform="translate(-288.832 -574.129)"/><path d="M518.759,575.317H529.05v.563c0,4.421.012,8.841-.007,13.26a3.613,3.613,0,0,0,1.758,3.151,3.822,3.822,0,0,0,4.268.184,3.629,3.629,0,0,0,1.963-3.221c.016-4.465,0-8.931-.009-13.4v-.532H547.5v.505c0,3.183.043,6.368-.016,9.551a18.338,18.338,0,0,1-1.648,7.863,13.831,13.831,0,0,1-3.028,4.219,14.188,14.188,0,0,1-7.723,3.76,13.793,13.793,0,0,1-7.423-.971,14.412,14.412,0,0,1-3.821-2.427,14.965,14.965,0,0,1-4.24-6.305,14.372,14.372,0,0,1-.851-5.093c.014-3.523,0-7.047,0-10.57Z" transform="translate(-349.673 -574.705)"/><path d="M211.065,601.161h-10.3V583.667H190.493v-8.323h30.632v8.392h-10.06Z" transform="translate(-190.493 -574.718)"/><path d="M323.391,601.167H313.249V575.35h10.143Z" transform="translate(-250.019 -574.721)"/></g></g></svg>
