<?xml version="1.0" encoding="UTF-8"?>
<svg width="98px" height="80px" viewBox="0 0 98 80" version="1.1" xmlns="http://www.w3.org/2000/svg" xmlns:xlink="http://www.w3.org/1999/xlink">
    <title>Group 22</title>
    <defs>
        <polygon id="path-1" points="0 0 21.2638037 0 21.2638037 65.732791 0 65.732791"></polygon>
        <polygon id="path-3" points="0 0 11.4801818 0 11.4801818 11.4224405 0 11.4224405"></polygon>
        <polygon id="path-5" points="0 0 5.98769925 0 5.98769925 10.9573241 0 10.9573241"></polygon>
    </defs>
    <g id="Page-1" stroke="none" stroke-width="1" fill="none" fill-rule="evenodd">
        <g id="Publications-v01" transform="translate(-75, -70)">
            <g id="Group-22" transform="translate(75, 70)">
                <path d="M87.1425064,0.028091262 C81.2646437,0.028091262 76.5005596,4.79200213 76.5005596,10.6693453 C76.5005596,16.5470349 81.2646437,21.3125045 87.1425064,21.3125045 C93.0188105,21.3125045 97.7861851,16.5470349 97.7861851,10.6693453 C97.7861851,4.79200213 93.0188105,0.028091262 87.1425064,0.028091262" id="Fill-1" fill="#0073B9"></path>
                <polygon id="Fill-3" fill="#0073B9" points="76.5111588 24.4030109 76.5111588 65.7349212 97.7747893 65.7304183 97.7747893 24.4030109"></polygon>
                <path d="M40.6201034,57.1096048 C36.4633932,61.2644099 29.724781,61.2644099 25.5678977,57.1064874 C21.4136122,52.9520288 21.4136122,46.2142825 25.5678977,42.0577456 C29.724781,37.9032869 36.4633932,37.9010355 40.6201034,42.0567064 C44.7749084,46.2132433 44.7738692,52.9544534 40.6201034,57.1096048 L40.6201034,57.1096048 Z M0,65.7349385 L35.3148035,65.7349385 L35.3158427,65.7349385 C38.9831206,65.7349385 42.4323534,64.3061289 45.0256861,61.7133159 C47.6179796,59.1194636 49.0473088,55.6726554 49.0473088,52.0019137 L49.0473088,0 L0,65.7349385 Z" id="Fill-5" fill="#0073B9"></path>
                <g id="Group-9" transform="translate(52.1426, 0)">
                    <mask id="mask-2" fill="white">
                        <use xlink:href="#path-1"></use>
                    </mask>
                    <g id="Clip-8"></g>
                    <path d="M0,-6.92756151e-05 L0,52.0018445 C0,55.6727593 1.42950232,59.1195675 4.02110308,61.7134198 C6.58256896,64.2726342 9.97880599,65.6969408 13.5962054,65.732791 L21.2638037,65.7305395 L21.2638037,58.7927598 L21.2638037,40.3728933 L21.2638037,28.4974942 L21.2638037,-6.92756151e-05 L0,-6.92756151e-05 Z" id="Fill-7" fill="#0073B9" mask="url(#mask-2)"></path>
                </g>
                <path d="M10.7269826,74.2448417 L10.7269826,74.681278 C10.7269826,77.6897448 8.60489735,79.9999134 5.53893181,79.9999134 C2.4726199,79.9999134 0.00207826845,77.35549 0.00207826845,74.3175811 C0.00207826845,71.1643283 2.53063822,68.5775768 5.68406423,68.5775768 C7.38426101,68.5775768 9.0702563,69.3472289 10.1459334,70.6998353 L9.18663933,71.6151393 C8.40140023,70.5394622 7.07892874,69.8278284 5.74260212,69.8278284 C3.28643519,69.8278284 1.3681934,71.8188096 1.3681934,74.2742838 C1.3681934,76.5693849 3.25733943,78.7501813 5.62621909,78.7501813 C7.32693544,78.7501813 9.15771676,77.2827506 9.21573509,75.494747 L6.38201605,75.494747 L6.38201605,74.2448417 L10.7269826,74.2448417 Z" id="Fill-10" fill="#005480"></path>
                <path d="M25.9667694,73.9982551 L26.4030325,73.9982551 C27.7977239,73.9982551 29.3091446,73.7363933 29.3091446,71.9930724 C29.3091446,70.2778082 27.681514,70.031187 26.3299468,70.031187 L25.9667694,70.031187 L25.9667694,73.9982551 Z M31.4161624,79.7677015 L29.7599557,79.7677015 L26.5332707,75.131431 L25.9667694,75.131431 L25.9667694,79.7677015 L24.6011738,79.7677015 L24.6011738,68.8103775 L26.2575537,68.8103775 C27.2313957,68.8103775 28.2772843,68.8252717 29.1489447,69.3190337 C30.0645952,69.8569588 30.5876261,70.8879532 30.5876261,71.9345345 C30.5876261,73.5046664 29.5419107,74.8106849 27.9575773,75.0005001 L31.4161624,79.7677015 Z" id="Fill-12" fill="#005480"></path>
                <g id="Group-16" transform="translate(44.2443, 68.5776)">
                    <mask id="mask-4" fill="white">
                        <use xlink:href="#path-3"></use>
                    </mask>
                    <g id="Clip-15"></g>
                    <path d="M10.1147594,5.71090853 C10.1147594,3.29838523 8.31290063,1.27934742 5.74035066,1.27934742 C3.16832026,1.27934742 1.36628832,3.29838523 1.36628832,5.71090853 C1.36628832,8.2107191 3.37181738,10.1431624 5.74035066,10.1431624 C8.10871076,10.1431624 10.1147594,8.2107191 10.1147594,5.71090853 M11.4801818,5.71090853 C11.4801818,8.96703563 8.90849774,11.4225098 5.74035066,11.4225098 C2.57272316,11.4225098 0,8.96703563 0,5.71090853 C0,2.57254997 2.60164573,0 5.74035066,0 C8.87974836,0 11.4801818,2.57254997 11.4801818,5.71090853" id="Fill-14" fill="#005480" mask="url(#mask-4)"></path>
                </g>
                <path d="M70.7470466,68.8103602 L70.7470466,75.2775852 C70.7470466,77.0652425 71.2846254,78.7207565 73.3912968,78.7207565 C75.498661,78.7207565 76.0365862,77.0652425 76.0365862,75.2775852 L76.0365862,68.8103602 L77.4023549,68.8103602 L77.4023549,75.7415587 C77.4023549,78.1537356 75.9051357,79.9999307 73.3912968,79.9999307 C70.8771116,79.9999307 69.3800655,78.1537356 69.3800655,75.7415587 L69.3800655,68.8103602 L70.7470466,68.8103602 Z" id="Fill-17" fill="#005480"></path>
                <g id="Group-21" transform="translate(91.8141, 68.8104)">
                    <mask id="mask-6" fill="white">
                        <use xlink:href="#path-5"></use>
                    </mask>
                    <g id="Clip-20"></g>
                    <path d="M1.36698108,5.14492675 L1.80203194,5.14492675 C3.19741602,5.14492675 4.70900994,4.88271855 4.70900994,3.13835856 C4.70900994,1.42413346 3.0808598,1.22080953 1.72981211,1.22080953 L1.36698108,1.22080953 L1.36698108,5.14492675 Z M1.36698108,10.9573241 L0,10.9573241 L0,0 L1.56909268,0 C4.94073688,0 5.9878378,1.16227163 5.9878378,3.16780069 C5.9878378,5.47814246 4.22927631,6.3653899 2.15118104,6.3653899 L1.36698108,6.3653899 L1.36698108,10.9573241 Z" id="Fill-19" fill="#005480" mask="url(#mask-6)"></path>
                </g>
            </g>
        </g>
    </g>
</svg>